HIERARCHY
ROOT Hips
{
	OFFSET 0.00000 0.00000 0.00000
	CHANNELS 6 Xposition Yposition Zposition Zrotation Yrotation Xrotation 
	JOINT LHipJoint
	{
		OFFSET 0 0 0
		CHANNELS 3 Zrotation Yrotation Xrotation
		JOINT LeftHip
		{
			OFFSET 1.66553 -1.82942 0.76350
			CHANNELS 3 Zrotation Yrotation Xrotation
			JOINT LeftKnee
			{
				OFFSET 2.41740 -6.64177 0.00000
				CHANNELS 3 Zrotation Yrotation Xrotation
				JOINT LeftAnkle
				{
					OFFSET 2.71614 -7.46254 0.00000
					CHANNELS 3 Zrotation Yrotation Xrotation
					JOINT LeftToe
					{
						OFFSET 0.08005 -0.21993 1.82495
						CHANNELS 3 Zrotation Yrotation Xrotation
						End Site
						{
							OFFSET 0.00000 -0.00000 0.93441
						}
					}
				}
			}
		}
	}
	JOINT RHipJoint
	{
		OFFSET 0 0 0
		CHANNELS 3 Zrotation Yrotation Xrotation
		JOINT RightHip
		{
			OFFSET -1.63725 -1.82942 0.76350
			CHANNELS 3 Zrotation Yrotation Xrotation
			JOINT RightKnee
			{
				OFFSET -2.40538 -6.60872 0.00000
				CHANNELS 3 Zrotation Yrotation Xrotation
				JOINT RightAnkle
				{
					OFFSET -2.73312 -7.50919 0.00000
					CHANNELS 3 Zrotation Yrotation Xrotation
					JOINT RightToe
					{
						OFFSET -0.15567 -0.42769 1.93504
						CHANNELS 3 Zrotation Yrotation Xrotation
						End Site
						{
							OFFSET -0.00000 -0.00000 1.00100
						}
					}
				}
			}
		}
	}
	JOINT lowerback
	{
		OFFSET 0 0 0
		CHANNELS 3 Zrotation Yrotation Xrotation
		JOINT Chest
		{
			OFFSET 0.00326 2.30118 -0.13017
			CHANNELS 3 Zrotation Yrotation Xrotation
			JOINT Chest2
			{
				OFFSET 0.02887 2.30677 0.00834
				CHANNELS 3 Zrotation Yrotation Xrotation
				JOINT lowerneck
				{
					OFFSET 0 0 0
					CHANNELS 3 Zrotation Yrotation Xrotation
					JOINT Neck
					{
						OFFSET 0.12946 1.68326 0.00713
						CHANNELS 3 Zrotation Yrotation Xrotation
						JOINT Head
						{
							OFFSET -0.24364 1.67243 -0.16079
							CHANNELS 3 Zrotation Yrotation Xrotation
							End Site
							{
								OFFSET -0.09229 1.70819 -0.06383
							}
						}
					}
				}
				JOINT LeftCollar
				{
					OFFSET 0 0 0
					CHANNELS 3 Zrotation Yrotation Xrotation
					JOINT LeftShoulder
					{
						OFFSET 3.28104 0.69567 -0.00556
CHANNELS 3 Zrotation Xrotation Yrotation
						JOINT LeftElbow
						{
OFFSET 0 -5.707060 -0.000000
CHANNELS 3 Zrotation Xrotation Yrotation
							JOINT LeftWrist
							{
OFFSET 0 -3.332430 0.000000
CHANNELS 3 Zrotation Xrotation Yrotation
								JOINT lhand
								{
									OFFSET 0 0 0
CHANNELS 3 Zrotation Xrotation Yrotation
									JOINT LFingers
									{
OFFSET 0 -0.792690 0.000000
CHANNELS 3 Zrotation Xrotation Yrotation
										End Site
										{
OFFSET 0 -0.639090 0.000000
										}
									}
								}
								JOINT LThumb
								{
OFFSET 0 0.000000 0.000000
CHANNELS 3 Zrotation Xrotation Yrotation
									End Site
									{
OFFSET 0 -0.648840 0.648840
									}
								}
							}
						}
					}
				}
				JOINT RightCollar
				{
					OFFSET 0 0 0
					CHANNELS 3 Zrotation Yrotation Xrotation
					JOINT RightShoulder
					{
						OFFSET -3.40955 0.64424 0.14010
CHANNELS 3 Zrotation Xrotation Yrotation
						JOINT RightElbow
						{
OFFSET 0 -5.881760 -0.000000
CHANNELS 3 Zrotation Xrotation Yrotation
							JOINT RightWrist
							{
OFFSET 0 -3.281560 0.000000
CHANNELS 3 Zrotation Xrotation Yrotation
								JOINT rhand
								{
									OFFSET 0 0 0
CHANNELS 3 Zrotation Xrotation Yrotation
									JOINT RFingers
									{
OFFSET 0 -0.863130 0.000000
CHANNELS 3 Zrotation Xrotation Yrotation
										End Site
										{
OFFSET 0 -0.695870 0.000000
										}
									}
								}
								JOINT RThumb
								{
OFFSET 0 0.000000 0.000000
CHANNELS 3 Zrotation Xrotation Yrotation
									End Site
									{
OFFSET 0 -0.706500 0.706500
									}
								}
							}
						}
					}
				}
			}
		}
	}
}
MOTION
Frames: 11
Frame Time: 0.008333333333333333
2.476382 18.567380 6.787657 -363.924132 -24.317853 7.364080 0.000000 0.000000 0.000000 -17.842223 2.400628 -8.168565 1.582147 7.935393 22.517930 -0.251177 11.550730 -12.152082 1.028489 -6.448637 -18.092665 0.000000 0.000000 0.000000 25.087278 -7.297393 -15.353201 -1.454109 -7.621996 21.571687 0.099349 -8.598062 -10.068922 -0.346795 -3.750541 10.379621 2.245283 -4.354850 2.400555 2.587682 -5.578935 -6.449796 1.995020 -2.812762 -8.061545 14.734818 5.142417 -1.793542 -22.187206 7.799677 6.018581 -9.163716 3.565476 3.540390 0.000000 0.000000 0.000000 9.984141 7.960815 -62.352111 32.087456 -42.616766 12.800001 45.019506 -11.581828 -42.395471 0.000000 0.000000 0.000000 -7.125000 0.000000 0.000000 23.615607 81.580710 -20.019970 0.000000 0.000000 0.000000 -4.216830 2.358769 26.725173 -10.789711 -17.965113 -1.710472 -17.373895 19.239674 -6.984845 0.000000 0.000000 0.000000 7.125000 0.000000 0.000000 6.887794 22.679711 3.725521
2.952276 18.242955 6.435192 -365.296155 -24.611529 7.404007 0.000000 0.000000 0.000000 -17.751988 1.166814 -8.935477 1.676962 8.157837 23.194710 0.140049 11.708039 -18.451901 1.284930 -7.180255 -20.251646 0.000000 0.000000 0.000000 25.535036 -7.505786 -14.117477 -1.959295 -8.780507 25.111249 -0.615056 -10.897998 -22.505180 -0.938929 -6.170672 17.280803 1.405366 -4.310715 4.111117 2.430073 -5.541928 -5.638534 2.386496 -2.736004 -8.113126 14.056721 4.841665 -0.840312 -21.577373 7.072211 3.500372 -8.877280 3.332293 2.465342 0.000000 0.000000 0.000000 11.244254 6.626771 -60.709556 30.168455 -41.035692 11.520686 46.191055 -9.894710 -41.837707 0.000000 0.000000 0.000000 -7.125000 0.000000 0.000000 28.039214 81.327965 -23.689988 0.000000 0.000000 0.000000 -3.520982 1.577713 19.573910 -9.774572 -16.386098 -1.410709 -18.246592 22.255864 -8.379531 0.000000 0.000000 0.000000 7.125000 0.000000 0.000000 6.229762 21.185134 3.578244
3.311753 17.951454 6.207992 -365.397154 -24.974720 7.968531 0.000000 0.000000 0.000000 -18.749226 1.232658 -11.115576 1.811646 8.462005 24.126361 0.726072 10.622741 -23.242525 0.921975 -6.116683 -17.123516 0.000000 0.000000 0.000000 24.884033 -7.395258 -9.992293 -2.008239 -8.883014 25.430292 -1.254409 -9.819455 -26.790571 -0.409661 -4.108589 11.382391 1.141388 -4.234929 2.814103 2.112021 -5.513137 -5.864109 2.092856 -2.729095 -7.605386 14.876135 4.644904 -1.032941 -21.319750 6.985521 5.141909 -8.948253 3.257683 2.966090 0.000000 0.000000 0.000000 12.547682 9.519437 -58.938408 24.309116 -35.488312 7.885783 49.527809 -8.282728 -40.860747 0.000000 0.000000 0.000000 -7.125000 0.000000 0.000000 40.996804 81.069047 -34.790404 0.000000 0.000000 0.000000 -3.018057 2.480060 17.438540 -9.381840 -15.766818 -1.301956 -18.481209 23.402792 -8.203908 0.000000 0.000000 0.000000 7.125000 0.000000 0.000000 6.061685 21.356027 3.457029
3.629719 18.154027 5.907293 -365.941376 -27.399447 8.098943 0.000000 0.000000 0.000000 -18.564171 3.589873 -13.798987 1.946934 8.754733 25.031082 0.301559 9.726884 -18.039558 1.356556 -7.364053 -20.802557 0.000000 0.000000 0.000000 26.196215 -6.637968 -5.851611 -2.041789 -8.952467 25.646844 -0.843954 -6.656460 -20.996412 -0.008880 -0.243540 0.669457 2.467923 -3.674628 2.609751 2.119796 -4.681950 -5.718122 1.270993 -2.396941 -7.458382 15.156570 4.776664 -1.135441 -20.806534 7.029427 4.473072 -8.810230 3.309794 2.793774 0.000000 0.000000 0.000000 14.412493 16.193194 -57.896197 22.427021 -33.456258 6.819764 48.035230 -10.597894 -42.089339 0.000000 0.000000 0.000000 -7.125000 0.000000 0.000000 36.353388 82.016732 -31.346834 0.000000 0.000000 0.000000 -2.323148 2.352342 18.148975 -9.697119 -16.264357 -1.388966 -17.826389 23.411493 -8.680439 0.000000 0.000000 0.000000 7.125000 0.000000 0.000000 6.529843 20.894642 3.796012
3.946509 18.570236 5.504106 -365.168523 -29.208471 7.601637 0.000000 0.000000 0.000000 -19.151132 4.125392 -15.458561 1.844768 8.534950 24.351012 -0.240103 10.236263 -9.546386 1.039235 -5.830034 -16.483679 0.000000 0.000000 0.000000 26.538389 -8.131404 -5.972809 -2.222824 -9.315366 26.787031 -0.035819 0.398715 -3.249987 -0.093804 1.912304 -5.265232 3.250008 -3.386579 2.869268 2.615266 -4.206391 -5.586103 1.324683 -2.190238 -7.490782 15.525231 5.147830 -0.855739 -22.011797 7.611261 4.259647 -9.265096 3.596799 2.861594 0.000000 0.000000 0.000000 16.589769 21.853508 -63.742448 22.828710 -33.900936 7.042557 47.309416 -13.375277 -42.369484 0.000000 0.000000 0.000000 -7.125000 0.000000 0.000000 33.456428 82.142619 -28.881048 0.000000 0.000000 0.000000 -3.060182 1.619727 23.229712 -11.048631 -18.362730 -1.791230 -17.749610 20.385352 -7.815388 0.000000 0.000000 0.000000 7.125000 0.000000 0.000000 6.596850 21.799147 3.699613
4.285593 18.685274 5.097449 -363.171452 -30.139057 6.855963 0.000000 0.000000 0.000000 -20.145319 2.999465 -16.045357 1.693764 8.196703 23.313182 -0.058250 7.706345 -9.631763 2.049527 -8.966121 -25.691048 0.000000 0.000000 0.000000 24.947370 -7.956586 -7.214559 -1.982896 -8.830401 25.266265 -0.001244 0.436091 -0.580588 -0.054980 1.490572 -4.100023 4.565745 -3.241457 2.449841 2.559912 -3.956359 -5.551772 0.489066 -2.142508 -7.313998 15.857904 5.563237 -0.662725 -23.252076 8.385005 4.893072 -9.723237 3.950989 3.235655 0.000000 0.000000 0.000000 18.207547 23.789390 -68.806160 23.453389 -34.580848 7.394059 42.658469 -18.306000 -41.403661 0.000000 0.000000 0.000000 -7.125000 0.000000 0.000000 15.471778 79.810300 -12.512831 0.000000 0.000000 0.000000 -3.228639 -0.004610 23.390934 -11.455737 -18.983437 -1.921588 -17.298421 18.644468 -8.534807 0.000000 0.000000 0.000000 7.125000 0.000000 0.000000 6.912183 21.074616 3.993074
4.551606 18.361297 4.711193 -360.671795 -31.309860 4.758894 0.000000 0.000000 0.000000 -20.320518 2.258374 -11.914362 1.521133 7.787979 22.071991 0.860250 7.562368 -21.830621 0.750470 -5.528736 -15.423989 0.000000 0.000000 0.000000 23.579538 -8.081703 -7.272781 -2.009335 -8.885481 25.437713 -0.168024 -2.255280 -8.906111 -0.357849 3.836541 -10.618032 3.733826 -3.007529 2.327616 2.242814 -3.720528 -5.359852 0.575887 -1.985160 -6.988498 15.794046 5.490945 0.531187 -23.235655 8.414052 4.848203 -9.739362 4.036851 3.011158 0.000000 0.000000 0.000000 15.653625 20.940432 -68.331552 21.652180 -32.580484 6.398098 47.245041 -13.944962 -42.190630 0.000000 0.000000 0.000000 -7.125000 0.000000 0.000000 32.884184 81.948961 -28.251797 0.000000 0.000000 0.000000 -2.908879 -0.997624 21.564769 -10.797938 -17.977542 -1.713293 -18.620643 21.685088 -7.755218 0.000000 0.000000 0.000000 7.125000 0.000000 0.000000 5.964977 21.818226 3.338328
4.799897 18.120375 4.398835 -359.892613 -30.501246 3.891275 0.000000 0.000000 0.000000 -18.678309 2.358819 -7.706629 1.590997 7.956395 22.581791 1.126187 5.948862 -23.022741 0.815078 -5.754829 -16.076330 0.000000 0.000000 0.000000 22.904923 -7.474748 -7.944804 -2.149275 -9.170031 26.328783 -0.423105 -2.875619 -13.679479 -0.498676 4.525713 -12.560812 3.746431 -3.691911 1.740387 1.955872 -4.680481 -5.558444 0.324169 -2.471436 -6.909619 16.150661 6.027505 0.641639 -23.348911 9.244958 5.202895 -9.791685 4.447727 3.289922 0.000000 0.000000 0.000000 10.744408 16.469170 -61.510077 19.044437 -29.473868 5.052718 46.986843 -10.354221 -42.565514 0.000000 0.000000 0.000000 -7.125000 0.000000 0.000000 32.246997 82.266461 -27.894164 0.000000 0.000000 0.000000 -2.469161 -0.454412 21.187577 -10.022975 -16.775374 -1.481615 -18.315336 22.655334 -7.795873 0.000000 0.000000 0.000000 7.125000 0.000000 0.000000 6.186765 21.790647 3.466806
5.090103 18.331361 4.146541 -359.132087 -29.848402 3.037708 0.000000 0.000000 0.000000 -18.751810 3.783469 -3.471024 1.561495 7.885525 22.367115 0.720808 5.270967 -18.798217 0.618948 -5.033962 -14.005599 0.000000 0.000000 0.000000 21.344979 -7.737092 -10.453037 -2.459086 -9.763127 28.213029 -0.243329 -1.209869 -9.826356 -0.394610 3.794858 -10.529995 2.046590 -4.383616 1.439015 1.768016 -5.716032 -5.677768 1.123210 -2.900336 -6.733245 16.018284 6.487878 1.017198 -22.826370 9.865679 4.984383 -9.543555 4.788739 3.257878 0.000000 0.000000 0.000000 9.203440 12.587739 -64.263072 23.377275 -34.497438 7.351419 48.928612 -10.532766 -41.983085 0.000000 0.000000 0.000000 -7.125000 0.000000 0.000000 40.414801 82.068385 -34.997698 0.000000 0.000000 0.000000 -2.693358 1.093587 22.134048 -9.776177 -16.388707 -1.411151 -19.152830 22.147592 -8.131159 0.000000 0.000000 0.000000 7.125000 0.000000 0.000000 5.576081 21.395356 3.171953
5.458100 18.693081 3.875288 -359.713826 -29.264470 3.906609 0.000000 0.000000 0.000000 -19.064577 1.812597 -1.955893 1.463785 7.645728 21.643337 -0.017899 5.159533 -6.712315 0.486899 -4.463390 -12.385908 0.000000 0.000000 0.000000 21.208638 -5.683363 -11.482683 -2.174755 -9.221011 26.489115 -0.005737 -1.769818 -3.013319 -0.194513 2.760403 -7.617223 0.567854 -4.756356 1.246532 1.736893 -6.296022 -5.881655 1.932130 -3.112820 -6.680525 16.146977 6.651737 0.537508 -21.933450 9.982768 5.022245 -9.223695 4.840096 3.335771 0.000000 0.000000 0.000000 10.110833 8.990055 -67.621670 29.664188 -40.603409 11.190618 48.330494 -11.257149 -41.086591 0.000000 0.000000 0.000000 -7.125000 0.000000 0.000000 36.063508 81.067384 -30.457341 0.000000 0.000000 0.000000 -3.187383 2.403417 24.151351 -10.234841 -17.106001 -1.543344 -16.983090 22.354482 -7.189105 0.000000 0.000000 0.000000 7.125000 0.000000 0.000000 7.168263 22.484622 3.911919
5.888264 18.687315 3.631322 -360.691886 -30.143257 4.888638 0.000000 0.000000 0.000000 -19.443705 1.775361 -2.661520 1.221788 7.010349 19.746313 -0.209385 8.270416 -4.908317 0.994360 -6.303429 -17.681739 0.000000 0.000000 0.000000 21.322821 -3.825202 -12.905227 -2.181340 -9.233944 26.529869 -0.093027 -2.722165 -7.391084 -0.494462 -4.493044 12.470625 -0.568893 -5.103603 1.465884 1.827940 -6.813615 -5.787608 2.692193 -3.308601 -6.550588 15.318747 7.158066 0.721065 -20.950817 10.504598 4.072880 -8.699736 5.130697 3.036314 0.000000 0.000000 0.000000 10.802571 7.212693 -64.169233 32.762112 -43.146363 13.259095 44.686772 -13.129147 -42.552895 0.000000 0.000000 0.000000 -7.125000 0.000000 0.000000 22.290085 81.640942 -18.906278 0.000000 0.000000 0.000000 -3.997947 2.209678 28.291079 -10.403190 -17.367775 -1.593210 -16.604594 20.991587 -7.310653 0.000000 0.000000 0.000000 7.125000 0.000000 0.000000 7.441228 22.374841 4.081917
